<svg xmlns="http://www.w3.org/2000/svg" xmlns:xlink="http://www.w3.org/1999/xlink" width="50" zoomAndPan="magnify" viewBox="0 0 37.5 37.499999" height="50" preserveAspectRatio="xMidYMid meet" version="1.0"><defs><clipPath id="72a93bc475"><path d="M 0 0 L 37.007812 0 L 37.007812 37.007812 L 0 37.007812 Z M 0 0 " clip-rule="nonzero"/></clipPath><clipPath id="b2d778b765"><path d="M 0 4.511719 L 37 4.511719 L 37 32.636719 L 0 32.636719 Z M 0 4.511719 " clip-rule="nonzero"/></clipPath></defs><g clip-path="url(#72a93bc475)"><path fill="#ffffff" d="M 0 0 L 37.007812 0 L 37.007812 37.007812 L 0 37.007812 Z M 0 0 " fill-opacity="1" fill-rule="nonzero"/><path fill="#232323" d="M 0 0 L 37.007812 0 L 37.007812 37.007812 L 0 37.007812 Z M 0 0 " fill-opacity="1" fill-rule="nonzero"/></g><g clip-path="url(#b2d778b765)"><path fill="#ffffff" d="M 35.835938 5.660156 C 34.671875 4.511719 32.785156 4.511719 31.625 5.660156 L 12.726562 24.316406 L 5.382812 17.066406 C 4.21875 15.917969 2.332031 15.917969 1.171875 17.066406 C 0.0078125 18.214844 0.0078125 20.078125 1.171875 21.226562 L 10.617188 30.554688 L 12.726562 32.636719 L 14.832031 30.554688 L 35.835938 9.820312 C 37 8.671875 37 6.808594 35.835938 5.660156 " fill-opacity="1" fill-rule="nonzero"/></g></svg>