<svg xmlns="http://www.w3.org/2000/svg" xmlns:xlink="http://www.w3.org/1999/xlink" width="50" zoomAndPan="magnify" viewBox="0 0 37.5 37.499999" height="50" preserveAspectRatio="xMidYMid meet" version="1.0"><defs><clipPath id="65d0a3965f"><path d="M 0 3.109375 L 37 3.109375 L 37 34.195312 L 0 34.195312 Z M 0 3.109375 " clip-rule="nonzero"/></clipPath></defs><g clip-path="url(#65d0a3965f)"><path fill="#404041" d="M 24.140625 22.347656 C 23.980469 23.867188 24.148438 25.378906 24.183594 26.890625 C 24.207031 27.898438 24.3125 28.898438 24.09375 29.894531 C 24.046875 30.113281 24.101562 30.332031 24.300781 30.457031 C 24.972656 30.875 25.0625 31.570312 25.132812 32.253906 C 25.203125 32.957031 26.003906 34.039062 26.917969 33.855469 C 27.269531 33.785156 27.628906 33.75 27.988281 33.707031 C 28.164062 33.6875 28.175781 33.617188 28.109375 33.46875 C 27.917969 33.019531 27.433594 32.703125 26.925781 32.753906 C 26.617188 32.785156 26.457031 32.652344 26.339844 32.386719 C 25.761719 31.054688 25.5 29.671875 25.675781 28.214844 C 25.90625 26.324219 26.117188 24.429688 26.199219 22.527344 C 26.214844 22.128906 26.378906 21.792969 26.535156 21.429688 C 27.050781 20.234375 27.902344 19.199219 28.1875 17.902344 C 28.289062 17.445312 28.359375 16.984375 28.332031 16.519531 C 28.257812 15.3125 28.574219 14.199219 29.085938 13.128906 C 29.753906 11.71875 30.511719 10.351562 31.132812 8.917969 C 31.328125 8.472656 31.800781 8.246094 32.335938 8.320312 C 32.875 8.398438 33.390625 8.53125 33.863281 8.828125 C 34.5625 9.273438 35.957031 9.191406 36.570312 8.691406 C 36.976562 8.363281 36.984375 8.140625 36.5625 7.851562 C 35.886719 7.378906 35.199219 6.921875 34.507812 6.46875 C 34.273438 6.3125 34.078125 6.128906 34.046875 5.835938 C 34.007812 5.402344 33.746094 5.148438 33.40625 4.917969 C 33 4.644531 32.546875 4.457031 32.421875 3.847656 C 32.304688 3.304688 31.585938 3.105469 31.089844 3.390625 C 30.875 3.515625 30.6875 3.566406 30.460938 3.460938 C 30.316406 3.394531 30.160156 3.414062 30.019531 3.46875 C 29.4375 3.710938 28.855469 3.953125 28.277344 4.203125 C 28.019531 4.3125 28.023438 4.472656 28.234375 4.636719 C 28.339844 4.71875 28.457031 4.789062 28.574219 4.855469 C 29.082031 5.136719 29.085938 5.140625 28.75 5.589844 C 27.632812 7.082031 26.445312 8.507812 24.972656 9.679688 C 24.578125 9.996094 24.148438 10.199219 23.632812 10.246094 C 23.0625 10.304688 22.492188 10.429688 21.984375 10.6875 C 20.503906 11.453125 18.953125 11.410156 17.367188 11.199219 C 15.421875 10.933594 13.484375 10.589844 11.507812 10.605469 C 9.738281 10.613281 8.054688 10.984375 6.476562 11.796875 C 5.863281 12.113281 5.25 12.433594 4.613281 12.703125 C 3.453125 13.199219 2.453125 13.011719 1.675781 12.207031 C 0.871094 11.371094 0.65625 10.148438 1.160156 9.074219 C 1.585938 8.15625 2.3125 7.515625 3.183594 7.027344 C 3.335938 6.945312 3.523438 6.917969 3.636719 6.769531 C 3.609375 6.679688 3.546875 6.691406 3.488281 6.703125 C 1.558594 7.070312 0.0195312 9.226562 0.3125 11.167969 C 0.585938 12.984375 2.3125 14.097656 4.160156 13.65625 C 4.476562 13.578125 4.902344 13.292969 5.082031 13.492188 C 5.28125 13.710938 4.902344 14.058594 4.792969 14.355469 C 4.464844 15.242188 4.375 16.136719 4.574219 17.054688 C 4.761719 17.921875 4.730469 18.78125 4.5 19.636719 C 4.140625 20.96875 3.828125 22.316406 3.4375 23.640625 C 3.078125 24.855469 2.285156 25.835938 1.515625 26.820312 C 1.261719 27.148438 1.089844 27.472656 1.132812 27.882812 C 1.257812 29.160156 1.101562 30.429688 1.09375 31.703125 C 1.085938 32.351562 1.042969 32.984375 1.179688 33.621094 C 1.265625 34.027344 1.496094 34.195312 1.886719 34.25 C 2.453125 34.328125 2.980469 34.117188 3.53125 34.050781 C 3.757812 34.023438 3.652344 33.863281 3.597656 33.742188 C 3.335938 33.183594 3.023438 32.988281 2.398438 33.03125 C 2.035156 33.058594 1.964844 32.859375 1.953125 32.566406 C 1.921875 31.664062 1.871094 30.730469 2.175781 29.886719 C 2.914062 27.847656 3.757812 25.84375 5.457031 24.355469 C 5.558594 24.464844 5.453125 24.574219 5.417969 24.667969 C 5.089844 25.535156 4.808594 26.429688 4.128906 27.113281 C 3.957031 27.289062 3.96875 27.480469 4.070312 27.695312 C 4.742188 29.109375 5.023438 30.621094 5.1875 32.160156 C 5.222656 32.515625 5.246094 32.851562 5.621094 33.03125 C 5.695312 33.066406 5.746094 33.160156 5.792969 33.234375 C 6.253906 33.976562 6.613281 34.128906 7.507812 33.941406 C 7.652344 33.910156 7.792969 33.855469 7.941406 33.824219 C 8.414062 33.726562 8.425781 33.695312 8.121094 33.300781 C 7.859375 32.960938 7.550781 32.726562 7.082031 32.835938 C 6.773438 32.910156 6.601562 32.742188 6.496094 32.472656 C 5.746094 30.546875 5.480469 28.636719 6.515625 26.695312 C 7.210938 25.394531 8.007812 24.160156 8.695312 22.859375 C 9.105469 22.089844 9.492188 21.308594 9.832031 20.507812 C 10.207031 19.628906 10.34375 18.722656 10.191406 17.777344 C 10.152344 17.539062 10.15625 17.300781 10.226562 17.066406 C 10.347656 16.660156 10.625 16.554688 10.980469 16.792969 C 11.140625 16.902344 11.273438 17.050781 11.433594 17.164062 C 11.925781 17.515625 12.28125 17.476562 12.542969 16.949219 C 12.785156 16.449219 13.109375 16.453125 13.53125 16.597656 C 14.316406 16.867188 14.960938 17.363281 15.585938 17.875 C 17.222656 19.21875 19.074219 20.09375 21.140625 20.523438 C 21.417969 20.582031 21.574219 20.632812 21.363281 20.9375 C 21.171875 21.21875 21.195312 21.507812 21.398438 21.777344 C 21.597656 22.042969 21.640625 22.339844 21.644531 22.667969 C 21.667969 24.015625 21.707031 25.367188 21.746094 26.71875 C 21.773438 27.667969 21.691406 28.605469 21.40625 29.519531 C 21.269531 29.964844 21.328125 30.316406 21.703125 30.644531 C 22.152344 31.046875 22.125 31.621094 22.070312 32.160156 C 22.039062 32.496094 22.039062 32.777344 22.316406 33.015625 C 22.484375 33.160156 22.503906 33.386719 22.546875 33.589844 C 22.617188 33.945312 22.835938 34.128906 23.179688 34.207031 C 23.726562 34.324219 24.25 34.195312 24.777344 34.070312 C 24.878906 34.046875 24.933594 34.007812 24.925781 33.890625 C 24.90625 33.484375 24.308594 32.933594 23.890625 33.003906 C 23.515625 33.066406 23.359375 32.910156 23.296875 32.582031 C 23.105469 31.574219 22.96875 30.558594 23.058594 29.539062 C 23.207031 27.851562 23.390625 26.164062 23.582031 24.480469 C 23.667969 23.753906 23.851562 23.039062 24.140625 22.347656 Z M 24.140625 22.347656 " fill-opacity="1" fill-rule="nonzero"/></g></svg>