<svg xmlns="http://www.w3.org/2000/svg" xmlns:xlink="http://www.w3.org/1999/xlink" width="50" zoomAndPan="magnify" viewBox="0 0 37.5 37.499999" height="50" preserveAspectRatio="xMidYMid meet" version="1.0"><defs><clipPath id="e030f3d4b1"><path d="M 0 10 L 37 10 L 37 26.992188 L 0 26.992188 Z M 0 10 " clip-rule="nonzero"/></clipPath></defs><g clip-path="url(#e030f3d4b1)"><path fill="#232323" d="M 2.625 16.632812 C 3.222656 16.519531 4.382812 16.058594 5.074219 15.648438 C 6.074219 15.054688 7.125 13.792969 8.175781 13.019531 C 9.007812 12.402344 9.578125 12.164062 9.796875 11.777344 C 10.015625 11.390625 10.519531 10.867188 11.710938 10.425781 C 12.902344 9.988281 13.808594 9.96875 14.679688 10.046875 C 15.550781 10.128906 17.238281 10.070312 18.949219 10.433594 C 20.664062 10.792969 22.582031 11.78125 23.949219 12.011719 C 25.316406 12.242188 26.613281 12.269531 26.84375 12.527344 C 27.445312 12.558594 29.652344 12.253906 30.082031 12.066406 C 30.082031 12.066406 29.796875 11.960938 29.578125 11.894531 C 29.363281 11.824219 29.40625 11.710938 29.664062 11.660156 C 29.265625 11.519531 29.386719 11.484375 29.570312 11.414062 C 29.753906 11.347656 30.089844 11.285156 30.089844 11.285156 C 30.089844 11.285156 30.246094 11.015625 30.617188 11 C 30.992188 10.984375 31.710938 11.242188 31.875 11.414062 C 32.039062 11.589844 32.082031 11.675781 32.082031 11.675781 C 32.082031 11.675781 32.578125 11.917969 32.949219 12.039062 C 33.324219 12.160156 34.152344 12.621094 34.144531 13.191406 C 34.265625 13.3125 35.402344 13.808594 35.707031 13.9375 C 36.007812 14.066406 36.363281 14.300781 36.503906 14.371094 C 36.640625 14.441406 36.96875 14.578125 36.980469 14.65625 C 36.988281 14.734375 36.902344 15.132812 36.78125 15.152344 C 36.640625 15.28125 36.5625 15.351562 36.546875 15.464844 C 36.527344 15.574219 36.007812 15.53125 36.007812 15.53125 C 36.007812 15.53125 35.949219 15.609375 35.90625 15.609375 C 35.871094 15.679688 35.828125 15.628906 35.835938 15.515625 C 35.652344 15.480469 35.472656 15.445312 35.238281 15.453125 C 35.003906 15.464844 34.613281 15.496094 34.613281 15.496094 L 34.605469 15.539062 C 34.605469 15.539062 34.933594 15.714844 35.125 15.800781 C 35.316406 15.886719 35.59375 15.972656 35.59375 15.972656 C 35.59375 15.972656 35.722656 15.894531 35.757812 15.929688 C 35.792969 15.964844 35.6875 16.0625 35.6875 16.0625 C 35.6875 16.0625 35.84375 16.128906 35.871094 16.226562 C 35.894531 16.320312 35.90625 16.441406 35.773438 16.382812 C 35.585938 16.496094 35.273438 16.496094 35.132812 16.476562 C 34.996094 16.460938 34.386719 16.347656 34.257812 16.277344 C 34.128906 16.207031 33.710938 16.042969 33.539062 16.050781 C 33.367188 16.0625 32.890625 16.050781 32.75 15.984375 C 32.613281 15.914062 32.011719 15.71875 32.011719 15.71875 C 32.011719 15.71875 31.5 15.714844 30.773438 15.9375 C 30.046875 16.160156 29.058594 16.589844 28.589844 16.648438 C 28.121094 16.710938 27.488281 16.757812 26.851562 17.277344 C 26.21875 17.796875 26.085938 17.992188 25.511719 18.835938 C 24.941406 19.683594 23.398438 20.042969 22.804688 20.238281 C 22.214844 20.433594 21.265625 20.769531 21.265625 20.769531 C 21.265625 20.769531 21.597656 22.390625 21.5 22.671875 C 21.402344 22.953125 20.820312 23.378906 20.707031 23.421875 C 20.59375 23.464844 19.824219 23.378906 19.640625 23.28125 C 19.457031 23.183594 18.898438 22.734375 18.757812 22.679688 C 18.617188 22.628906 18.132812 22.574219 18.132812 22.574219 L 17.71875 22.851562 C 17.71875 22.851562 18.554688 23.378906 18.660156 23.394531 C 18.769531 23.414062 19.207031 23.476562 19.324219 23.527344 C 19.4375 23.582031 19.894531 24.023438 19.964844 24.101562 C 20.039062 24.179688 19.90625 24.277344 19.84375 24.285156 C 19.800781 24.375 19.683594 24.542969 19.550781 24.558594 C 19.421875 24.578125 19.332031 24.578125 19.332031 24.578125 C 19.332031 24.578125 18.890625 24.648438 18.75 24.480469 C 18.589844 24.472656 18.433594 24.542969 18.300781 24.4375 C 18.167969 24.332031 18.164062 24.203125 17.996094 24.113281 C 17.828125 24.027344 17.234375 23.734375 16.722656 23.558594 C 16.371094 23.832031 16.226562 23.984375 15.566406 24.136719 C 15.664062 24.355469 15.988281 24.664062 16.140625 24.816406 C 16.289062 24.964844 17.269531 25.652344 17.390625 25.730469 C 17.515625 25.8125 18.109375 25.925781 18.222656 25.960938 C 18.339844 25.996094 18.839844 26.367188 18.894531 26.453125 C 18.945312 26.542969 18.910156 26.699219 18.851562 26.710938 C 18.824219 26.824219 18.636719 26.984375 18.417969 26.957031 C 18.242188 27.035156 18.019531 27.035156 17.921875 26.964844 C 17.816406 27 17.675781 27.035156 17.558594 26.964844 C 17.445312 26.894531 17.214844 26.914062 17.144531 26.835938 C 17.074219 26.753906 16.96875 26.550781 16.890625 26.507812 C 16.808594 26.464844 16.253906 26.226562 16.105469 26.09375 C 15.953125 25.960938 15.144531 25.175781 14.816406 24.824219 C 14.492188 24.472656 13.769531 23.855469 13.601562 23.730469 C 13.390625 23.675781 12.796875 23.667969 12.648438 23.640625 C 12.5 23.617188 12.402344 23.554688 12.296875 23.570312 C 12.191406 23.589844 11.863281 23.574219 11.792969 23.546875 C 11.722656 23.519531 11.246094 23.308594 11.175781 23.226562 C 11.105469 23.148438 11.203125 22.972656 11.203125 22.972656 C 11.203125 22.972656 11.238281 22.734375 11.386719 22.644531 C 11.539062 22.558594 12.058594 22.425781 12.207031 22.496094 C 12.402344 22.433594 12.523438 22.363281 12.675781 22.460938 C 12.824219 22.558594 12.9375 22.636719 13 22.65625 C 13.0625 22.671875 13.132812 22.761719 13.132812 22.761719 L 13.46875 22.785156 C 13.46875 22.785156 13.484375 22.097656 13.390625 21.683594 C 13.292969 21.269531 13.089844 20.328125 12.992188 20.167969 C 12.894531 20.007812 12.210938 18.8125 11.726562 18.050781 C 11.644531 17.929688 11.238281 17.570312 10.410156 16.757812 C 9.578125 15.945312 9.386719 15.222656 9.371094 14.722656 C 9.351562 14.21875 9.316406 13.945312 9.28125 13.898438 C 9.246094 13.855469 8.878906 13.832031 8.636719 13.933594 C 8.347656 14.0625 6.304688 15.707031 5.46875 16.132812 C 4.644531 16.554688 3.65625 16.925781 2.742188 17.089844 C 1.96875 17.226562 0.355469 17.019531 0.1875 16.890625 C 0.0195312 16.757812 1.371094 16.867188 2.625 16.632812 Z M 19.984375 22.296875 C 19.984375 22.296875 19.832031 22.078125 20.046875 22.0625 C 20.261719 22.046875 20.421875 21.976562 20.421875 21.976562 L 20.121094 21.421875 L 19.269531 21.898438 Z M 16.671875 22.171875 C 16.671875 22.171875 16.695312 22.15625 16.738281 22.113281 C 16.535156 22.027344 16.40625 21.835938 16.394531 21.761719 C 16.378906 21.691406 16.289062 21.582031 16.445312 21.496094 C 16.476562 21.367188 16.753906 21.28125 16.882812 21.25 C 17.015625 21.222656 17.082031 21.238281 17.328125 21.335938 C 17.386719 21.265625 17.617188 21.265625 17.746094 21.335938 C 18.25 20.933594 18.953125 20.070312 19.011719 19.855469 C 19.070312 19.640625 19.199219 19.523438 19.199219 19.523438 C 19.199219 19.523438 19.15625 19.378906 19.113281 19.265625 C 18.121094 18.820312 18.066406 18.203125 17.644531 17.019531 C 17.367188 16.234375 16.664062 15.882812 16.664062 15.882812 C 16.664062 15.882812 16.679688 16.070312 16.609375 16.574219 C 16.535156 17.078125 15.933594 18.085938 15.757812 18.589844 C 15.585938 19.09375 15.566406 20.136719 15.566406 20.308594 C 15.566406 20.480469 15.882812 21.382812 16.085938 21.628906 C 16.285156 21.871094 16.671875 22.171875 16.671875 22.171875 Z M 15.285156 22.703125 C 15.484375 22.761719 15.628906 22.761719 15.628906 22.761719 L 15.046875 22.171875 L 14.996094 22.921875 C 14.996094 22.921875 15.082031 22.648438 15.285156 22.703125 " fill-opacity="1" fill-rule="nonzero"/></g></svg>