<svg xmlns="http://www.w3.org/2000/svg" xmlns:xlink="http://www.w3.org/1999/xlink" width="50" zoomAndPan="magnify" viewBox="0 0 37.5 37.499999" height="50" preserveAspectRatio="xMidYMid meet" version="1.0"><defs><clipPath id="4ddc8def7e"><path d="M 0 11 L 37 11 L 37 30.828125 L 0 30.828125 Z M 0 11 " clip-rule="nonzero"/></clipPath><clipPath id="ed626a7309"><path d="M 18 6.40625 L 29 6.40625 L 29 18 L 18 18 Z M 18 6.40625 " clip-rule="nonzero"/></clipPath></defs><g clip-path="url(#4ddc8def7e)"><path fill="#232323" d="M 0.3125 24.410156 C 0.191406 24.5625 0.117188 24.730469 0.335938 24.6875 C 0.550781 24.644531 1.28125 24.617188 1.28125 24.605469 C 1.300781 24.65625 1.570312 24.71875 1.796875 24.636719 C 2.019531 24.554688 2.71875 24.675781 3.070312 24.757812 C 3.417969 24.839844 3.851562 24.378906 4.015625 24.070312 C 4.179688 23.761719 5.191406 22.753906 5.40625 22.484375 C 5.625 22.21875 5.839844 22.125 5.839844 22.125 C 5.839844 22.125 4.929688 23.496094 4.417969 24.277344 C 3.902344 25.058594 3.5 25.480469 3.367188 25.550781 C 3.234375 25.625 3.246094 25.695312 3.296875 25.707031 C 3.347656 25.714844 3.480469 25.859375 3.359375 26.074219 C 3.234375 26.292969 2.886719 26.148438 2.648438 26.085938 C 2.410156 26.023438 2.433594 26.128906 2.433594 26.128906 C 2.433594 26.128906 2.15625 26.375 2.101562 26.425781 C 2.050781 26.476562 1.980469 27.0625 1.980469 27.421875 C 1.980469 27.78125 1.96875 28.027344 2.082031 27.945312 C 2.195312 27.863281 2.882812 27.402344 2.882812 27.402344 C 2.882812 27.402344 3.140625 27.390625 3.273438 27.246094 C 3.40625 27.101562 4.160156 26.371094 4.375 26.25 C 4.589844 26.125 4.785156 25.785156 4.910156 25.46875 C 5.03125 25.148438 6.054688 23.800781 6.1875 23.644531 C 6.320312 23.492188 7.011719 22.886719 7.195312 22.699219 C 7.507812 22.382812 9.835938 22.105469 11.0625 21.605469 C 12.328125 21.089844 12.746094 20.402344 12.988281 20.199219 C 13.234375 19.992188 13.890625 19.59375 14.773438 19.761719 C 15.480469 19.878906 16.871094 20.40625 17.386719 20.683594 C 17.902344 20.960938 19.007812 21.25 19.65625 21.34375 C 20.175781 21.417969 20.789062 21.339844 21.265625 21.339844 L 21.265625 21.378906 C 21.261719 21.441406 21.28125 21.488281 21.308594 21.492188 L 21.589844 21.5 C 21.617188 21.5 21.636719 21.449219 21.640625 21.390625 L 21.640625 21.359375 C 22.117188 21.425781 22.570312 21.550781 22.570312 21.550781 C 22.417969 22.363281 22.769531 22.320312 22.738281 22.507812 C 22.707031 22.691406 22.632812 23.597656 22.5625 24.4375 C 22.492188 25.28125 22.460938 25.230469 22.574219 25.722656 C 22.6875 26.21875 22.625 26.886719 22.511719 27.460938 C 22.316406 28.726562 22.507812 29.089844 22.566406 29.183594 C 22.734375 29.460938 22.847656 29.519531 22.949219 29.488281 C 23.050781 29.457031 23.046875 29.40625 23.078125 29.394531 C 23.53125 29.34375 23.570312 29.796875 23.488281 30.042969 C 23.40625 30.289062 23.558594 30.289062 23.558594 30.289062 C 23.558594 30.289062 23.765625 30.535156 23.847656 30.566406 C 23.929688 30.597656 25.199219 30.597656 25.136719 30.484375 C 25.074219 30.371094 24.519531 29.703125 24.519531 29.695312 C 24.601562 29.199219 23.738281 28.953125 23.636719 28.871094 C 23.535156 28.789062 23.492188 28.644531 23.472656 28.574219 C 23.453125 28.5 23.398438 28.222656 23.429688 27.710938 C 23.460938 27.195312 23.523438 25.910156 23.59375 25.796875 C 23.667969 25.683594 23.730469 25.242188 23.757812 24.984375 C 23.789062 24.726562 24.128906 23.648438 24.222656 23.277344 C 24.316406 22.90625 24.644531 22.09375 24.644531 22.09375 C 24.644531 22.09375 26.046875 22.285156 26.046875 22.296875 C 26.519531 22.8125 26.746094 22.851562 27.011719 22.894531 C 27.28125 22.933594 28.402344 23.726562 28.8125 23.992188 C 29.222656 24.261719 29.511719 24.558594 29.777344 24.609375 C 30.046875 24.664062 30.734375 25.054688 31.175781 25.402344 C 31.617188 25.753906 32.421875 26.269531 32.65625 26.351562 C 32.894531 26.433594 32.972656 26.367188 32.992188 26.316406 C 33.007812 26.277344 33.039062 26.1875 33.210938 26.183594 C 33.429688 26.183594 33.703125 26.421875 33.777344 26.730469 C 33.832031 26.949219 34.023438 26.902344 34.015625 26.902344 C 34.078125 26.984375 34.488281 26.914062 34.582031 26.875 C 34.671875 26.832031 35.523438 25.992188 35.460938 25.910156 C 35.398438 25.828125 34.445312 25.765625 34.445312 25.765625 C 34.445312 25.765625 34.289062 25.570312 34.03125 25.589844 C 33.773438 25.613281 33.355469 25.589844 33.160156 25.5 C 32.964844 25.40625 32.613281 25.25 32.324219 25.109375 C 32.039062 24.964844 30.679688 23.914062 30.484375 23.6875 C 30.289062 23.460938 30.054688 23.265625 29.886719 23.164062 C 29.722656 23.0625 29.003906 22.21875 28.480469 21.828125 C 27.957031 21.4375 27.636719 20.890625 27.636719 20.890625 C 27.8125 20.4375 27.625 20.347656 27.648438 20.234375 C 27.707031 19.75 27.582031 18.964844 27.535156 18.679688 L 27.550781 18.683594 C 27.609375 18.707031 27.660156 18.710938 27.664062 18.695312 L 27.726562 18.527344 C 27.734375 18.511719 27.691406 18.480469 27.632812 18.460938 L 27.605469 18.449219 C 27.71875 18.359375 27.90625 18.292969 28.191406 18.1875 C 28.582031 18.042969 28.910156 17.867188 29.539062 17.722656 C 30.695312 17.449219 31.335938 17.125 31.695312 16.972656 C 32.078125 17.121094 32.480469 17.238281 32.867188 17.335938 C 33.285156 17.441406 33.683594 17.515625 34.011719 17.570312 C 34.269531 17.703125 34.660156 17.894531 34.921875 18.015625 L 34.90625 18.050781 C 34.882812 18.09375 34.878906 18.136719 34.894531 18.144531 L 35.058594 18.21875 C 35.070312 18.226562 35.101562 18.195312 35.121094 18.152344 L 35.136719 18.121094 C 35.167969 18.132812 35.1875 18.144531 35.195312 18.144531 C 35.246094 18.167969 35.308594 18.300781 35.347656 18.421875 C 35.390625 18.546875 35.347656 18.617188 35.535156 18.648438 C 35.851562 18.722656 35.925781 18.660156 35.976562 18.679688 C 36.171875 18.785156 36.222656 18.628906 36.222656 18.628906 C 36.304688 18.671875 36.726562 18.414062 36.738281 18.320312 C 36.746094 18.226562 36.808594 17.992188 36.851562 17.859375 C 36.890625 17.722656 36.921875 17.621094 36.851562 17.363281 C 36.777344 17.109375 36.121094 16.285156 35.605469 15.617188 C 35.089844 14.949219 35.164062 14.90625 34.84375 14.476562 C 34.527344 14.042969 34 13.488281 33.859375 13.425781 C 33.839844 13.417969 33.824219 13.410156 33.808594 13.402344 L 33.832031 13.382812 C 33.875 13.339844 33.902344 13.296875 33.890625 13.285156 L 33.769531 13.15625 C 33.757812 13.144531 33.710938 13.167969 33.667969 13.210938 L 33.621094 13.257812 C 33.59375 13.230469 33.578125 13.214844 33.578125 13.210938 C 33.621094 13.023438 33.375 13.003906 33.375 13.003906 L 33.179688 12.769531 C 33.179688 12.769531 33.074219 12.5 33.015625 12.296875 C 32.953125 12.089844 32.789062 11.707031 32.726562 11.699219 C 32.664062 11.6875 32.769531 12.015625 32.808594 12.152344 C 32.851562 12.285156 32.769531 12.625 32.769531 12.625 C 32.769531 12.625 32.480469 12.285156 32.367188 12.171875 C 32.253906 12.058594 32.234375 12.160156 32.386719 12.347656 C 32.488281 12.46875 32.53125 12.671875 32.550781 12.792969 C 32.453125 12.757812 32.347656 12.726562 32.25 12.699219 C 32.09375 12.65625 31.898438 12.671875 31.773438 12.789062 C 31.742188 12.601562 31.925781 12.496094 32.082031 12.460938 C 32.015625 12.433594 31.875 12.441406 31.820312 12.464844 C 31.753906 12.492188 31.675781 12.542969 31.621094 12.589844 C 31.519531 12.671875 31.414062 12.8125 31.359375 12.960938 C 31.296875 12.980469 31.210938 12.847656 31.167969 12.8125 C 31.105469 12.757812 31.058594 12.695312 30.984375 12.652344 C 30.839844 12.574219 30.632812 12.785156 30.5 12.84375 C 30.339844 12.914062 30.136719 13.003906 29.96875 13.046875 C 29.96875 13.046875 29.875 13.003906 29.796875 12.921875 C 29.742188 12.867188 29.699219 12.8125 29.640625 12.761719 C 29.515625 12.652344 29.246094 12.5 29.105469 12.644531 C 29.308594 12.632812 29.460938 12.710938 29.464844 12.867188 C 29.359375 12.882812 29.277344 12.824219 29.179688 12.808594 C 29.078125 12.796875 28.953125 12.796875 28.851562 12.808594 C 28.84375 12.855469 28.867188 12.949219 28.828125 12.988281 C 28.785156 13.035156 28.757812 12.96875 28.722656 12.9375 C 28.613281 12.839844 28.660156 12.609375 28.660156 12.460938 C 28.632812 12.523438 28.539062 12.761719 28.535156 12.832031 C 28.53125 12.917969 28.542969 12.964844 28.449219 12.980469 C 28.3125 13 28.257812 12.886719 28.140625 12.824219 C 28.011719 12.753906 27.832031 12.773438 27.6875 12.777344 C 27.535156 12.777344 27.378906 12.78125 27.226562 12.792969 C 27.058594 12.808594 26.890625 12.832031 26.71875 12.84375 C 26.761719 12.886719 26.878906 12.90625 26.941406 12.941406 C 27.007812 12.980469 27.0625 13.023438 27.109375 13.09375 C 27.023438 13.089844 26.910156 13.023438 26.832031 12.992188 C 26.742188 12.957031 26.652344 12.9375 26.554688 12.898438 C 26.472656 12.871094 26.394531 12.835938 26.308594 12.800781 C 26.21875 12.765625 26.148438 12.71875 26.058594 12.667969 C 26.089844 12.722656 26.171875 12.789062 26.226562 12.835938 C 26.132812 12.851562 26.03125 12.820312 25.9375 12.851562 C 25.851562 12.882812 25.769531 12.890625 25.6875 12.917969 C 25.621094 12.9375 25.523438 12.964844 25.46875 13.007812 C 25.425781 13.035156 25.320312 13.132812 25.3125 13.183594 C 25.160156 13.207031 25.054688 13.1875 24.917969 13.121094 C 24.804688 13.066406 24.667969 12.996094 24.550781 12.953125 C 24.488281 12.925781 24.328125 12.953125 24.257812 12.96875 C 24.257812 12.96875 24.238281 12.953125 24.160156 12.898438 C 24.019531 12.800781 23.875 12.8125 23.710938 12.804688 C 23.761719 12.84375 23.824219 12.855469 23.882812 12.871094 C 24.066406 12.925781 24.128906 13.046875 24.15625 13.078125 C 24.191406 13.117188 24.207031 13.148438 24.234375 13.1875 C 23.960938 13.117188 23.675781 13.058594 23.394531 13.113281 C 23.257812 13.136719 23.125 13.1875 22.996094 13.234375 C 22.894531 13.273438 22.734375 13.3125 22.652344 13.390625 C 22.425781 13.460938 22.171875 13.566406 21.910156 13.683594 C 21.289062 13.707031 20.753906 13.769531 20.390625 13.871094 C 19.886719 14.007812 18.976562 14.046875 18.402344 13.902344 C 17.832031 13.753906 17.625 13.722656 17.613281 13.804688 C 17.609375 13.859375 17.738281 14.191406 18.285156 14.390625 C 18.105469 14.371094 17.929688 14.351562 17.753906 14.332031 C 16.65625 14.199219 15.699219 13.738281 14.082031 13.457031 C 12.695312 13.21875 11.25 13.507812 10.675781 13.582031 C 10.542969 13.597656 10.402344 13.632812 10.261719 13.6875 C 10.074219 13.71875 8.675781 13.96875 7.679688 14.589844 C 7.660156 14.605469 6.503906 15.019531 6.160156 15.070312 C 5.8125 15.117188 5.070312 15.179688 4.96875 15.785156 C 4.863281 16.390625 4.484375 17.074219 4.035156 17.3125 C 4.035156 17.332031 3.3125 17.3125 2.429688 17.457031 C 1.550781 17.601562 0.496094 17.472656 0.496094 17.472656 C 0.496094 17.472656 0.652344 17.632812 0.753906 17.664062 C 0.738281 17.664062 0.21875 17.710938 0.0117188 17.792969 C 0.0117188 17.808594 0.894531 18.03125 1.257812 18.238281 C 1.617188 18.445312 2.65625 18.621094 2.65625 18.621094 C 2.65625 18.621094 4.605469 18.953125 5.625 18.414062 C 5.640625 18.429688 5.125 18.761719 4.398438 18.90625 C 4.261719 18.921875 4.777344 19.175781 6.210938 18.367188 L 6.453125 18.332031 C 6.453125 18.332031 5.882812 18.746094 5.210938 18.953125 C 5.3125 18.933594 6.226562 18.757812 6.972656 18.269531 C 7.800781 17.726562 8.265625 17.570312 8.265625 17.570312 L 8.523438 17.601562 C 8.523438 17.601562 8.195312 17.824219 7.816406 17.96875 C 7.4375 18.109375 7.058594 18.398438 7.003906 18.445312 C 6.953125 18.492188 7.625 18.125 7.835938 18.078125 C 8.042969 18.03125 8.714844 17.871094 9.042969 17.601562 C 9.085938 17.5625 9.171875 17.460938 9.285156 17.3125 C 8.972656 18.382812 8.835938 19.40625 8.835938 19.40625 C 8.835938 19.40625 8.382812 19.609375 8.074219 19.722656 C 7.765625 19.832031 6.785156 20.121094 6.4375 20.140625 C 6.085938 20.164062 6.003906 20.164062 5.707031 20.460938 C 5.410156 20.757812 3.246094 23.476562 3.132812 23.539062 C 3.019531 23.597656 2.867188 23.433594 2.753906 23.476562 C 2.640625 23.515625 2.753906 23.640625 2.578125 23.835938 C 2.402344 24.03125 2.0625 23.609375 1.929688 23.371094 C 1.796875 23.136719 1.695312 23.238281 1.695312 23.238281 C 1.695312 23.238281 1.230469 23.238281 1.109375 23.300781 C 0.984375 23.363281 0.4375 24.253906 0.3125 24.410156 Z M 32.007812 16.886719 C 32.273438 16.851562 32.515625 16.910156 32.5625 16.933594 C 32.597656 16.953125 32.648438 17.027344 32.777344 17.117188 C 32.519531 17.050781 32.261719 16.972656 32.007812 16.886719 Z M 5.210938 18.953125 C 5.199219 18.957031 5.199219 18.957031 5.210938 18.953125 " fill-opacity="1" fill-rule="nonzero"/></g><g clip-path="url(#ed626a7309)"><path fill="#232323" d="M 19.175781 15.78125 C 19.378906 15.554688 19.945312 14.5 20.425781 13.835938 C 20.90625 13.171875 21.378906 13.046875 21.378906 13.046875 C 21.378906 13.046875 21.269531 13 21.074219 12.949219 C 20.878906 12.898438 20.492188 12.683594 20.296875 12.578125 C 19.46875 12.1875 19.222656 12.136719 18.835938 11.878906 C 18.066406 11.363281 18.136719 10.734375 18.226562 10.230469 C 18.300781 9.835938 18.960938 9.273438 19.285156 9.136719 C 19.605469 8.996094 20.382812 8.769531 20.71875 8.605469 C 21.050781 8.441406 22.003906 8.03125 22.566406 7.914062 C 22.988281 7.824219 23.421875 7.757812 23.726562 7.757812 C 24.003906 7.742188 24.246094 7.777344 24.5 7.878906 C 24.710938 7.964844 24.691406 7.859375 24.785156 7.933594 C 24.796875 7.941406 24.8125 7.964844 24.828125 7.996094 C 24.882812 7.972656 24.910156 7.933594 24.921875 7.871094 C 24.773438 7.863281 24.699219 7.804688 24.734375 7.640625 C 24.796875 7.449219 24.886719 7.25 25 7.074219 C 25.019531 7.011719 25.046875 6.953125 25.082031 6.902344 C 25.160156 6.78125 25.347656 6.601562 25.601562 6.515625 C 25.769531 6.4375 25.957031 6.40625 26.164062 6.433594 C 27.3125 6.535156 27.402344 7.515625 27.402344 7.515625 C 27.402344 7.515625 28.027344 7.628906 27.957031 7.710938 C 27.921875 7.753906 27.691406 7.789062 27.378906 7.8125 C 27.378906 7.933594 27.375 8.066406 27.347656 8.082031 C 27.273438 8.117188 27.164062 8.113281 27.0625 8.097656 C 27.050781 8.121094 27.042969 8.140625 27.039062 8.15625 C 27.027344 8.191406 27.007812 8.222656 26.980469 8.25 C 27.003906 8.265625 27.019531 8.285156 27.019531 8.300781 C 27.019531 8.339844 26.929688 8.472656 26.878906 8.546875 C 26.878906 8.601562 26.878906 8.65625 26.882812 8.710938 C 26.894531 8.847656 26.839844 8.878906 26.804688 8.898438 C 26.765625 8.917969 26.683594 8.882812 26.667969 8.890625 C 26.628906 8.910156 26.640625 8.980469 26.621094 9.003906 C 26.589844 9.074219 26.503906 9.042969 26.503906 9.042969 C 26.539062 9.066406 26.515625 9.144531 26.464844 9.144531 C 26.414062 9.144531 26.371094 9.175781 26.355469 9.210938 C 26.34375 9.25 26.289062 9.371094 26.175781 9.394531 C 26.082031 9.414062 25.96875 9.339844 25.902344 9.292969 L 25.898438 9.296875 C 25.875 9.34375 25.84375 9.375 25.828125 9.367188 L 25.65625 9.28125 C 25.640625 9.277344 25.644531 9.238281 25.664062 9.195312 C 25.605469 9.183594 25.539062 9.175781 25.484375 9.191406 C 25.433594 9.207031 25.363281 9.226562 25.292969 9.25 C 25.300781 9.269531 25.304688 9.292969 25.304688 9.308594 C 25.328125 9.445312 25.195312 9.46875 25.195312 9.46875 C 25.195312 9.46875 25.441406 9.882812 25.398438 9.992188 C 25.421875 10.011719 25.941406 10.578125 26.035156 10.839844 C 26.011719 10.859375 26.40625 11.121094 26.890625 11.519531 C 27.328125 11.875 27.808594 12.179688 27.875 12.308594 C 27.875 12.308594 28.316406 12.4375 28.386719 12.699219 C 28.398438 12.738281 28.402344 12.777344 28.402344 12.816406 C 28.535156 12.902344 28.660156 12.988281 28.695312 13.015625 C 28.761719 13.066406 28.746094 13.179688 28.75 13.179688 C 28.820312 13.253906 28.695312 13.574219 28.6875 13.671875 C 28.679688 13.765625 28.613281 13.796875 28.613281 13.796875 C 28.613281 13.796875 28.605469 13.835938 28.546875 13.839844 C 28.492188 13.847656 28.285156 13.789062 28.25 13.773438 C 28.21875 13.753906 28.074219 13.671875 28.050781 13.644531 C 28.023438 13.621094 28.003906 13.410156 28.003906 13.410156 C 28.003906 13.410156 28.019531 13.367188 28.070312 13.359375 C 28.121094 13.355469 28.15625 13.449219 28.15625 13.445312 C 28.183594 13.398438 28.257812 13.4375 28.257812 13.4375 L 28.285156 13.347656 C 28.285156 13.347656 28.152344 13.261719 28.15625 13.253906 C 28.09375 13.261719 27.972656 13.386719 27.921875 13.417969 C 27.871094 13.449219 27.871094 13.53125 27.867188 13.644531 C 27.859375 13.757812 27.796875 13.878906 27.707031 13.867188 C 27.621094 13.855469 27.644531 13.726562 27.652344 13.640625 C 27.660156 13.550781 27.652344 13.476562 27.632812 13.386719 C 27.613281 13.296875 27.632812 13.242188 27.640625 13.152344 C 27.640625 13.132812 27.644531 13.113281 27.648438 13.09375 C 27.519531 13 27.425781 12.875 27.425781 12.875 C 27.425781 12.875 27.226562 12.671875 26.8125 12.671875 C 26.398438 12.671875 26.21875 12.394531 25.847656 12.351562 C 25.480469 12.308594 24.992188 11.792969 24.808594 11.535156 C 24.808594 11.535156 24.257812 11.394531 23.871094 10.832031 C 23.851562 10.832031 23.144531 11.035156 21.6875 11.039062 C 21.929688 11.199219 22.253906 11.425781 22.5 11.648438 C 22.941406 12.054688 23.289062 12.519531 23.351562 12.578125 C 23.414062 12.636719 23.542969 12.898438 23.453125 13.203125 C 23.363281 13.507812 23.03125 13.703125 22.765625 13.828125 C 22.5 13.953125 21.945312 14.476562 21.117188 15.230469 C 20.289062 15.980469 19.949219 16.4375 19.941406 16.519531 C 19.933594 16.601562 20.023438 16.6875 20.089844 16.8125 C 20.238281 17.085938 20.847656 17.429688 20.976562 17.5625 C 21.03125 17.621094 21.121094 17.683594 21.027344 17.796875 C 20.929688 17.910156 20.75 17.910156 20.742188 17.902344 C 20.464844 17.914062 20.015625 17.792969 19.882812 17.71875 C 19.28125 17.378906 19.246094 17.371094 19.082031 17.441406 C 18.71875 17.429688 18.429688 17.238281 18.296875 17.125 C 18.214844 17.054688 18.339844 16.746094 18.566406 16.511719 C 18.792969 16.28125 18.972656 16.011719 19.175781 15.78125 " fill-opacity="1" fill-rule="nonzero"/></g></svg>