<svg xmlns="http://www.w3.org/2000/svg" xmlns:xlink="http://www.w3.org/1999/xlink" width="50" zoomAndPan="magnify" viewBox="0 0 37.5 37.499999" height="50" preserveAspectRatio="xMidYMid meet" version="1.0"><defs><clipPath id="ffd6b41586"><path d="M 0 4 L 37 4 L 37 33.601562 L 0 33.601562 Z M 0 4 " clip-rule="nonzero"/></clipPath></defs><g clip-path="url(#ffd6b41586)"><path fill="#404041" d="M 0.136719 25.332031 C 0.285156 25.339844 0.425781 25.367188 0.574219 25.402344 C 1.089844 25.515625 1.597656 25.5 2.109375 25.5625 C 2.179688 25.570312 2.550781 25.597656 2.574219 25.667969 C 2.59375 25.722656 2.292969 25.886719 2.265625 25.898438 C 1.945312 26.09375 1.609375 26.21875 1.269531 26.355469 C 1.179688 26.390625 1.089844 26.429688 1.003906 26.472656 C 0.988281 26.476562 0.839844 26.558594 0.851562 26.566406 C 0.859375 26.578125 1.1875 26.546875 1.304688 26.542969 C 1.773438 26.527344 2.242188 26.476562 2.695312 26.375 C 2.910156 26.332031 3.222656 26.222656 3.234375 26.238281 C 3.253906 26.273438 3.074219 26.417969 3.042969 26.449219 C 2.855469 26.65625 2.660156 26.855469 2.480469 27.070312 C 2.460938 27.089844 2.292969 27.308594 2.296875 27.3125 C 2.324219 27.328125 2.449219 27.238281 2.476562 27.222656 C 2.660156 27.136719 2.851562 27.0625 3.039062 26.980469 C 3.867188 26.617188 4.632812 26.144531 5.246094 25.472656 C 6.191406 24.429688 6.835938 23.074219 7.109375 21.703125 C 7.347656 20.503906 7.109375 18.660156 8.15625 17.816406 C 8.519531 17.523438 8.996094 17.367188 9.4375 17.238281 C 9.15625 18.179688 8.867188 19.214844 9.164062 20.199219 C 9.375 20.894531 9.613281 21.59375 9.878906 22.273438 C 9.984375 22.535156 10.171875 22.808594 10.171875 23.097656 C 10.171875 23.359375 10.050781 23.617188 9.925781 23.835938 C 9.644531 24.328125 9.257812 24.800781 8.816406 25.148438 C 8.59375 25.324219 8.335938 25.476562 8.164062 25.710938 C 7.984375 25.953125 8.035156 26.21875 8.019531 26.503906 C 8.011719 26.75 7.957031 26.988281 7.917969 27.234375 C 7.75 28.175781 7.386719 29.070312 7.171875 30.003906 C 7.105469 30.289062 7.003906 30.597656 6.992188 30.894531 C 6.984375 31.210938 7.375 31.285156 7.453125 31.566406 C 7.550781 31.933594 7.316406 32.347656 7.363281 32.738281 C 7.421875 33.230469 8.285156 33.078125 8.609375 33.078125 C 8.796875 33.078125 8.976562 33.066406 9.164062 33.054688 C 9.167969 33.054688 9.359375 33.050781 9.359375 33.046875 C 9.359375 32.964844 9.128906 32.742188 9.078125 32.667969 C 8.988281 32.535156 8.921875 32.371094 8.808594 32.25 C 8.523438 31.945312 8.191406 31.75 8.15625 31.28125 C 8.125 30.898438 8.257812 30.480469 8.328125 30.105469 C 8.433594 29.460938 8.515625 28.6875 8.800781 28.097656 C 8.917969 27.855469 9.164062 27.695312 9.316406 27.480469 C 9.460938 27.28125 9.574219 27.0625 9.730469 26.875 C 10.097656 26.449219 10.546875 26.09375 10.960938 25.71875 C 11.289062 25.421875 11.570312 25.058594 11.871094 24.738281 C 12.054688 24.542969 12.265625 24.386719 12.4375 24.179688 C 12.433594 24.898438 12.371094 25.605469 12.253906 26.316406 C 12.199219 26.636719 11.992188 27.03125 12.042969 27.351562 C 12.09375 27.683594 12.261719 27.921875 12.40625 28.21875 C 12.699219 28.816406 13.015625 29.398438 13.324219 29.988281 C 13.546875 30.414062 13.75 30.828125 13.988281 31.242188 C 14.082031 31.40625 14.117188 31.613281 14.25 31.757812 C 14.367188 31.894531 14.542969 31.855469 14.699219 31.878906 C 14.851562 31.90625 15.015625 32.035156 15.113281 32.144531 C 15.3125 32.375 14.839844 32.632812 15.089844 32.835938 C 15.375 33.070312 16.351562 32.996094 16.699219 32.894531 C 16.714844 32.890625 16.523438 32.597656 16.511719 32.578125 C 16.503906 32.570312 16.5 32.5625 16.492188 32.554688 C 16.488281 32.546875 16.484375 32.539062 16.472656 32.535156 C 16.257812 32.21875 15.949219 31.863281 15.65625 31.625 C 14.90625 31.011719 14.453125 30.039062 14.03125 29.191406 C 13.90625 28.941406 13.75 28.597656 13.71875 28.3125 C 13.699219 28.140625 13.765625 27.957031 13.78125 27.792969 C 13.820312 27.242188 13.875 26.6875 13.984375 26.148438 C 14.078125 25.679688 14.21875 25.222656 14.320312 24.761719 C 14.40625 24.355469 14.394531 23.929688 14.515625 23.535156 C 14.609375 23.21875 14.824219 22.96875 14.972656 22.679688 C 15.117188 22.394531 15.195312 22.085938 15.285156 21.777344 C 15.9375 22.035156 16.519531 22.441406 17.167969 22.714844 C 18.003906 23.070312 18.925781 23.292969 19.828125 23.347656 C 20.25 23.371094 20.667969 23.355469 21.089844 23.339844 C 21.292969 23.335938 21.519531 23.308594 21.722656 23.332031 C 21.742188 23.335938 21.777344 23.378906 21.789062 23.394531 C 21.84375 23.453125 21.886719 23.507812 21.949219 23.558594 C 22.125 23.6875 22.375 23.796875 22.601562 23.796875 C 22.820312 23.796875 22.9375 23.59375 23.125 23.511719 C 23.285156 23.441406 23.492188 23.488281 23.65625 23.472656 C 23.722656 23.527344 23.785156 23.574219 23.820312 23.652344 C 23.929688 23.886719 23.839844 24.261719 23.792969 24.503906 C 23.738281 24.800781 23.652344 25.097656 23.617188 25.394531 C 23.554688 25.941406 23.550781 26.492188 23.5 27.042969 C 23.480469 27.21875 23.503906 27.441406 23.460938 27.609375 C 23.429688 27.738281 23.355469 27.824219 23.351562 27.957031 C 23.34375 28.191406 23.492188 28.398438 23.464844 28.648438 C 23.414062 29.148438 23.210938 29.648438 23.117188 30.136719 C 23.054688 30.453125 22.992188 30.769531 22.925781 31.082031 C 22.886719 31.257812 22.816406 31.460938 22.871094 31.640625 C 22.972656 31.976562 23.378906 32.003906 23.550781 32.273438 C 23.703125 32.519531 23.320312 32.921875 23.683594 33.011719 C 23.734375 33.023438 23.789062 33.035156 23.84375 33.042969 C 23.929688 33.054688 24.007812 33.070312 24.09375 33.074219 C 24.207031 33.078125 24.324219 33.09375 24.4375 33.09375 C 24.675781 33.09375 24.914062 33.0625 25.152344 33.042969 C 25.171875 33.042969 25.339844 33.039062 25.339844 33.027344 C 25.347656 32.988281 25.269531 32.90625 25.246094 32.878906 C 25.148438 32.75 25.03125 32.632812 24.933594 32.496094 C 24.710938 32.191406 24.351562 32.066406 24.117188 31.78125 C 23.964844 31.59375 23.917969 31.269531 23.886719 31.035156 C 23.839844 30.679688 23.941406 30.332031 24.03125 29.992188 C 24.121094 29.640625 24.203125 29.269531 24.34375 28.933594 C 24.417969 28.757812 24.535156 28.601562 24.59375 28.417969 C 24.710938 28.03125 24.722656 27.617188 24.816406 27.21875 C 24.929688 26.742188 25.121094 26.28125 25.289062 25.820312 C 25.472656 25.304688 25.625 24.765625 25.890625 24.28125 C 26.429688 24.445312 26.804688 25.058594 27.199219 25.425781 C 27.582031 25.785156 27.992188 26.109375 28.375 26.472656 C 28.53125 26.621094 28.726562 26.660156 28.816406 26.871094 C 28.878906 27.015625 28.851562 27.152344 28.875 27.300781 C 28.902344 27.457031 28.972656 27.5625 28.925781 27.734375 C 28.863281 27.980469 28.714844 28.207031 28.609375 28.433594 C 28.449219 28.777344 28.304688 29.152344 28.09375 29.464844 C 28.003906 29.605469 27.871094 29.714844 27.777344 29.855469 C 27.679688 30.011719 27.734375 30.15625 27.742188 30.328125 C 27.746094 30.390625 27.753906 30.503906 27.703125 30.546875 C 27.652344 30.597656 27.539062 30.578125 27.476562 30.578125 C 27.316406 30.578125 27.089844 30.5625 26.941406 30.632812 C 26.8125 30.695312 26.792969 30.863281 26.78125 30.992188 C 26.742188 31.300781 26.6875 31.640625 26.734375 31.949219 C 26.742188 32.015625 26.726562 32.261719 26.800781 32.3125 C 26.890625 32.375 27.152344 32.179688 27.21875 32.128906 C 27.4375 31.964844 27.585938 31.773438 27.734375 31.546875 C 27.828125 31.398438 27.902344 31.222656 28.035156 31.105469 C 28.253906 30.917969 28.539062 30.824219 28.710938 30.582031 C 29.003906 30.179688 29.113281 29.707031 29.273438 29.238281 C 29.386719 28.90625 29.496094 28.5625 29.644531 28.246094 C 29.71875 28.078125 29.828125 27.925781 29.894531 27.753906 C 30.09375 27.246094 30.125 26.59375 29.878906 26.097656 C 29.742188 25.824219 29.449219 25.691406 29.261719 25.453125 C 28.628906 24.664062 28.394531 23.710938 27.972656 22.824219 C 28.371094 22.234375 28.820312 21.796875 29.039062 21.097656 C 29.265625 20.367188 29.082031 19.59375 29.210938 18.851562 C 29.378906 17.90625 29.902344 17.0625 30.445312 16.285156 C 30.484375 16.226562 30.535156 16.148438 30.589844 16.054688 C 30.640625 16.082031 30.707031 16.097656 30.738281 16.109375 C 31.007812 16.183594 31.320312 16.179688 31.597656 16.214844 C 32.414062 16.308594 33.1875 16.621094 34 16.726562 C 34.207031 16.75 34.421875 16.765625 34.632812 16.765625 C 34.652344 16.765625 34.675781 16.765625 34.699219 16.769531 C 34.714844 16.789062 34.734375 16.808594 34.75 16.832031 C 34.921875 17.03125 34.988281 17.328125 35.203125 17.492188 C 35.390625 17.628906 35.527344 17.53125 35.71875 17.496094 C 35.871094 17.464844 36.03125 17.550781 36.1875 17.519531 C 36.53125 17.449219 36.519531 17.03125 36.664062 16.789062 C 36.761719 16.625 37.003906 16.414062 36.949219 16.214844 C 36.894531 16.019531 36.746094 15.863281 36.652344 15.683594 C 36.476562 15.355469 36.347656 15.007812 36.148438 14.695312 C 36.035156 14.519531 35.867188 14.378906 35.761719 14.199219 C 35.652344 14.011719 35.601562 13.796875 35.515625 13.605469 C 35.417969 13.382812 35.289062 13.179688 35.214844 12.945312 C 35.164062 12.773438 35.210938 12.585938 35.128906 12.421875 C 35 12.164062 34.734375 12.007812 34.546875 11.792969 C 34.359375 11.578125 34.246094 11.304688 34.097656 11.0625 C 34.367188 10.714844 34.554688 10.265625 34.628906 9.828125 C 34.652344 9.703125 34.675781 9.554688 34.664062 9.425781 C 34.664062 9.425781 34.652344 9.320312 34.652344 9.320312 C 34.472656 9.390625 34.328125 9.636719 34.203125 9.773438 C 34.15625 9.828125 34.105469 9.878906 34.058594 9.929688 C 34.039062 9.945312 34.015625 10.003906 34.003906 9.984375 C 33.980469 9.9375 34 9.839844 34.003906 9.792969 C 34.011719 9.644531 34.027344 9.488281 34.011719 9.34375 C 34.007812 9.3125 33.996094 9.167969 33.964844 9.152344 C 33.945312 9.144531 33.921875 9.167969 33.898438 9.175781 C 33.804688 9.222656 33.71875 9.296875 33.65625 9.382812 C 33.445312 9.664062 33.320312 9.988281 33.105469 10.265625 C 33.039062 10.355469 32.96875 10.449219 32.886719 10.53125 C 32.882812 10.535156 32.824219 10.589844 32.820312 10.585938 C 32.507812 10.054688 31.957031 10.375 31.503906 10.371094 C 31.070312 10.367188 30.675781 10.175781 30.304688 10.496094 C 30.257812 10.539062 30.203125 10.617188 30.132812 10.640625 C 30.058594 10.664062 29.976562 10.648438 29.902344 10.664062 C 29.765625 10.679688 29.628906 10.722656 29.5 10.765625 C 29.355469 10.816406 29.207031 10.882812 29.089844 10.988281 C 29.003906 11.058594 28.941406 11.164062 28.84375 11.214844 C 28.667969 11.3125 28.449219 11.3125 28.269531 11.410156 C 28.121094 11.492188 28.039062 11.621094 27.917969 11.734375 C 27.875 11.78125 27.820312 11.855469 27.757812 11.886719 C 27.558594 11.976562 27.332031 11.957031 27.15625 12.105469 C 26.976562 12.253906 26.980469 12.523438 26.8125 12.675781 C 26.613281 12.847656 26.300781 12.859375 26.082031 13 C 25.871094 13.136719 25.839844 13.355469 25.679688 13.523438 C 25.617188 13.589844 25.464844 13.566406 25.378906 13.597656 C 25.210938 13.65625 25.078125 13.773438 24.929688 13.859375 C 24.878906 13.832031 24.832031 13.8125 24.785156 13.785156 C 24.214844 13.46875 23.65625 13.117188 23.191406 12.667969 C 23.199219 12.613281 23.203125 12.558594 23.199219 12.503906 C 23.195312 12.449219 23.183594 12.398438 23.152344 12.351562 C 23.148438 12.347656 23.109375 12.300781 23.109375 12.296875 C 23.117188 12.257812 23.164062 12.234375 23.171875 12.195312 C 23.207031 12.085938 23.113281 11.992188 23.03125 11.933594 C 22.820312 11.785156 22.65625 11.84375 22.417969 11.832031 C 22.285156 11.828125 22.152344 11.773438 22.027344 11.726562 C 21.734375 11.597656 21.464844 11.445312 21.191406 11.28125 C 21.09375 11.226562 20.929688 11.15625 20.867188 11.0625 C 20.753906 10.902344 20.777344 10.640625 20.761719 10.457031 C 20.734375 10.050781 20.699219 9.636719 20.5625 9.253906 C 20.484375 9.019531 20.34375 8.808594 20.203125 8.605469 C 20.058594 8.390625 19.917969 8.210938 19.914062 7.953125 C 19.910156 7.71875 20.042969 7.414062 20.117188 7.195312 C 20.234375 7.203125 20.386719 7.21875 20.503906 7.199219 C 20.578125 7.183594 20.648438 7.152344 20.675781 7.085938 C 20.695312 7.046875 20.695312 7 20.691406 6.960938 C 20.683594 6.925781 20.675781 6.882812 20.695312 6.851562 C 20.707031 6.824219 20.734375 6.816406 20.761719 6.8125 C 20.777344 6.808594 20.796875 6.808594 20.808594 6.789062 C 20.820312 6.75 20.777344 6.734375 20.777344 6.703125 C 20.777344 6.667969 20.839844 6.671875 20.847656 6.640625 C 20.859375 6.601562 20.824219 6.585938 20.820312 6.554688 C 20.816406 6.519531 20.847656 6.484375 20.871094 6.464844 C 20.902344 6.4375 20.945312 6.433594 20.976562 6.40625 C 20.996094 6.394531 21.015625 6.375 21.027344 6.355469 C 21.132812 6.222656 20.90625 6.132812 20.894531 6.003906 C 20.886719 5.945312 20.917969 5.886719 20.933594 5.828125 C 20.941406 5.789062 20.945312 5.757812 20.910156 5.730469 C 21.09375 5.679688 21.292969 5.695312 21.472656 5.648438 C 21.492188 5.644531 21.503906 5.640625 21.523438 5.632812 C 21.691406 5.542969 21.433594 5.464844 21.355469 5.453125 C 21.292969 5.4375 21.230469 5.433594 21.164062 5.429688 C 21.125 5.199219 21.164062 4.980469 21.03125 4.769531 C 20.847656 4.488281 20.578125 4.269531 20.261719 4.148438 C 19.878906 3.996094 19.359375 4.078125 19.019531 4.289062 C 18.769531 4.441406 18.59375 4.675781 18.460938 4.933594 C 18.429688 4.996094 18.402344 5.054688 18.382812 5.121094 C 18.371094 5.171875 18.355469 5.222656 18.34375 5.269531 C 18.285156 5.492188 18.222656 5.863281 18.453125 6.003906 C 18.511719 6.042969 18.578125 6.0625 18.648438 6.058594 C 18.695312 6.058594 18.757812 6.03125 18.804688 6.050781 C 18.816406 6.054688 18.816406 6.152344 18.820312 6.167969 C 18.851562 6.308594 18.847656 6.4375 18.84375 6.578125 C 18.757812 6.578125 18.601562 6.578125 18.550781 6.652344 C 18.53125 6.675781 18.554688 6.761719 18.554688 6.789062 C 18.554688 6.882812 18.542969 6.96875 18.515625 7.058594 C 18.445312 7.285156 18.277344 7.476562 18.167969 7.683594 C 17.96875 8.058594 17.667969 8.46875 17.609375 8.898438 C 17.585938 9.046875 17.609375 9.207031 17.617188 9.359375 C 17.648438 9.867188 17.777344 10.371094 17.792969 10.875 C 17.808594 11.304688 17.71875 11.746094 17.769531 12.179688 C 17.78125 12.253906 17.796875 12.421875 17.855469 12.472656 C 17.9375 12.539062 18.132812 12.449219 18.089844 12.582031 C 18.015625 12.800781 17.902344 13.011719 17.855469 13.246094 C 17.777344 13.640625 17.886719 14.054688 18.121094 14.371094 C 18.253906 14.550781 18.414062 14.703125 18.609375 14.8125 C 18.675781 14.847656 18.84375 14.921875 18.851562 15.011719 C 18.851562 15.019531 18.753906 15.023438 18.75 15.023438 C 18.652344 15.027344 18.570312 15.023438 18.472656 15 C 18.105469 14.917969 17.785156 14.726562 17.496094 14.480469 C 17.34375 14.355469 17.203125 14.199219 17.011719 14.140625 C 16.796875 14.078125 16.660156 14.261719 16.6875 14.464844 C 16.71875 14.695312 16.886719 14.828125 17.046875 14.976562 C 16.996094 14.96875 16.835938 14.9375 16.796875 14.992188 C 16.789062 15.003906 16.792969 15.089844 16.789062 15.089844 C 16.746094 15.113281 16.671875 15.097656 16.617188 15.121094 C 16.589844 15.136719 16.558594 15.179688 16.53125 15.179688 C 16.421875 15.1875 16.3125 15.101562 16.214844 15.066406 C 16.042969 15.007812 15.847656 15.054688 15.722656 15.179688 C 15.433594 15.039062 15.128906 14.988281 14.816406 14.933594 C 13.949219 14.789062 13.144531 14.90625 12.34375 15.257812 C 11.46875 15.640625 10.71875 16.285156 9.78125 16.511719 C 9.386719 16.609375 8.984375 16.59375 8.578125 16.621094 C 7.375 16.703125 6.039062 17.285156 5.328125 18.289062 C 5.015625 18.730469 4.964844 19.335938 4.589844 19.734375 C 4.316406 20.015625 3.941406 20.183594 3.59375 20.347656 C 3.460938 20.410156 3.175781 20.484375 3.082031 20.601562 C 3.074219 20.613281 3.328125 20.605469 3.351562 20.601562 C 3.566406 20.585938 3.796875 20.558594 4.007812 20.585938 C 4.023438 20.589844 4.207031 20.621094 4.191406 20.648438 C 3.746094 21.390625 2.945312 21.621094 2.152344 21.792969 C 1.855469 21.855469 1.550781 21.921875 1.273438 22.042969 C 1.25 22.054688 1.011719 22.175781 1.011719 22.179688 C 1.078125 22.246094 1.3125 22.246094 1.402344 22.261719 C 1.808594 22.328125 2.191406 22.320312 2.601562 22.296875 C 2.777344 22.289062 2.957031 22.28125 3.132812 22.300781 C 3.148438 22.300781 3.304688 22.324219 3.300781 22.335938 C 3.292969 22.355469 2.832031 22.628906 2.773438 22.664062 C 2.273438 22.972656 1.773438 23.105469 1.210938 23.253906 C 0.980469 23.320312 0.542969 23.402344 0.390625 23.613281 C 0.386719 23.617188 0.386719 23.625 0.390625 23.628906 C 0.480469 23.714844 0.800781 23.75 0.925781 23.78125 C 1.34375 23.890625 1.769531 23.882812 2.195312 23.867188 C 2.359375 23.863281 2.527344 23.859375 2.6875 23.867188 C 2.699219 23.867188 2.828125 23.867188 2.824219 23.886719 C 2.808594 24.003906 2.46875 24.175781 2.382812 24.234375 C 1.835938 24.601562 1.292969 24.761719 0.675781 24.972656 C 0.570312 25.007812 0.015625 25.222656 0.00390625 25.339844 C 0.0078125 25.332031 0.121094 25.332031 0.136719 25.332031 Z M 31.867188 14.589844 C 32.039062 14.84375 32.25 15.144531 32.53125 15.289062 C 32.761719 15.40625 33.035156 15.417969 33.257812 15.554688 C 33.441406 15.660156 33.585938 15.859375 33.75 15.996094 C 33.835938 16.0625 33.921875 16.128906 34.011719 16.199219 C 33.414062 16.050781 32.816406 15.886719 32.207031 15.769531 C 31.957031 15.71875 31.707031 15.683594 31.453125 15.636719 C 31.269531 15.597656 31.085938 15.558594 30.894531 15.523438 C 31.191406 15.066406 31.542969 14.605469 31.867188 14.589844 Z M 30.820312 15.65625 C 30.980469 15.707031 31.152344 15.734375 31.316406 15.773438 C 32.054688 15.945312 32.796875 16.09375 33.539062 16.238281 C 33.765625 16.285156 33.988281 16.324219 34.210938 16.382812 C 34.234375 16.386719 34.25 16.394531 34.273438 16.402344 C 34.339844 16.453125 34.40625 16.507812 34.472656 16.566406 C 34.425781 16.582031 34.371094 16.582031 34.335938 16.585938 C 34.132812 16.59375 33.9375 16.554688 33.738281 16.523438 C 32.953125 16.402344 32.167969 16.253906 31.394531 16.0625 C 31.175781 16.007812 30.945312 15.960938 30.71875 15.921875 C 30.707031 15.921875 30.6875 15.917969 30.671875 15.917969 C 30.710938 15.828125 30.765625 15.742188 30.820312 15.65625 Z M 23.117188 12.828125 C 23.617188 13.234375 24.132812 13.609375 24.683594 13.9375 C 24.445312 14.003906 24.195312 14.011719 23.949219 14.0625 C 23.90625 14.070312 23.867188 14.085938 23.820312 14.105469 C 23.492188 13.769531 23.179688 13.429688 22.925781 13.035156 C 23.007812 12.988281 23.074219 12.914062 23.117188 12.828125 Z M 22.699219 13.109375 C 22.710938 13.109375 22.730469 13.105469 22.742188 13.105469 C 22.878906 13.359375 23.09375 13.566406 23.269531 13.792969 C 23.382812 13.933594 23.5 14.0625 23.621094 14.195312 C 23.582031 14.210938 23.535156 14.230469 23.492188 14.242188 C 23.351562 14.285156 23.203125 14.261719 23.058594 14.265625 C 22.949219 14.171875 22.839844 14.082031 22.722656 14 C 22.714844 13.875 22.695312 13.742188 22.683594 13.636719 C 22.671875 13.460938 22.632812 13.285156 22.617188 13.113281 C 22.644531 13.113281 22.671875 13.113281 22.699219 13.109375 Z M 22.300781 12.945312 C 22.367188 13.007812 22.433594 13.058594 22.507812 13.085938 C 22.472656 13.328125 22.449219 13.566406 22.441406 13.816406 C 22.234375 13.6875 22.019531 13.585938 21.789062 13.492188 C 21.796875 13.480469 21.8125 13.46875 21.816406 13.460938 C 21.976562 13.292969 22.148438 13.121094 22.28125 12.921875 C 22.292969 12.9375 22.296875 12.941406 22.300781 12.945312 Z M 20.871094 12.914062 C 20.902344 12.675781 21.015625 12.457031 21.027344 12.214844 C 21.261719 12.398438 21.554688 12.5625 21.828125 12.679688 C 21.929688 12.722656 22.074219 12.742188 22.171875 12.804688 C 22.085938 12.890625 21.996094 12.96875 21.910156 13.054688 C 21.847656 13.117188 21.792969 13.179688 21.738281 13.253906 C 21.699219 13.304688 21.644531 13.363281 21.601562 13.429688 C 21.585938 13.421875 21.574219 13.417969 21.558594 13.414062 C 21.382812 13.355469 21.203125 13.320312 21.023438 13.269531 C 20.976562 13.257812 20.875 13.234375 20.855469 13.179688 C 20.828125 13.089844 20.855469 12.996094 20.871094 12.914062 Z M 20.871094 12.914062 " fill-opacity="1" fill-rule="evenodd"/></g></svg>