<svg xmlns="http://www.w3.org/2000/svg" xmlns:xlink="http://www.w3.org/1999/xlink" width="50" zoomAndPan="magnify" viewBox="0 0 37.5 37.499999" height="50" preserveAspectRatio="xMidYMid meet" version="1.0"><defs><clipPath id="49d982c634"><path d="M 0.148438 0.148438 L 37.007812 0.148438 L 37.007812 37.007812 L 0.148438 37.007812 Z M 0.148438 0.148438 " clip-rule="nonzero"/></clipPath></defs><path fill="#000000" d="M 22.386719 4.171875 C 19.605469 4.222656 16.824219 4.269531 14.042969 4.320312 L 14.058594 5 L 14.074219 5.675781 L 22.355469 5.492188 C 22.367188 5.050781 22.378906 4.613281 22.386719 4.171875 Z M 26.4375 8.53125 L 17.910156 8.777344 L 9.378906 9.019531 L 5.792969 11.71875 C 14.117188 11.554688 22.441406 11.394531 30.765625 11.230469 C 29.324219 10.332031 27.878906 9.429688 26.4375 8.53125 Z M 14.710938 18.226562 Z M 21.351562 18.351562 Z M 24.355469 14.046875 L 21.351562 18.351562 L 24.421875 22.1875 C 25.527344 20.863281 26.632812 19.539062 27.738281 18.21875 C 26.609375 16.828125 25.480469 15.4375 24.355469 14.046875 Z M 17.902344 13.964844 L 14.710938 18.226562 L 17.75 22.472656 C 18.851562 21.09375 19.953125 19.71875 21.054688 18.34375 C 20.003906 16.882812 18.953125 15.425781 17.902344 13.964844 Z M 11.296875 14.039062 L 8.160156 17.988281 C 9.179688 19.511719 10.203125 21.035156 11.222656 22.558594 C 12.292969 21.101562 13.363281 19.644531 14.433594 18.1875 Z M 15.328125 26.960938 Z M 20.699219 27.21875 Z M 12.664062 23.492188 L 10.03125 26.613281 C 10.824219 27.871094 11.613281 29.128906 12.402344 30.382812 C 13.304688 29.230469 14.207031 28.078125 15.105469 26.925781 Z M 23.230469 23.804688 L 20.699219 27.21875 L 23.09375 30.398438 C 24.019531 29.351562 24.945312 28.308594 25.871094 27.261719 C 24.992188 26.109375 24.109375 24.957031 23.230469 23.804688 Z M 18.011719 23.589844 L 15.328125 26.960938 L 17.6875 30.46875 C 18.609375 29.382812 19.535156 28.292969 20.460938 27.207031 C 19.644531 26 18.828125 24.792969 18.011719 23.589844 Z M 15.75 33.195312 Z M 19.910156 33.347656 Z M 21.839844 30.679688 L 19.910156 33.347656 L 21.792969 35.789062 C 22.5 34.96875 23.210938 34.152344 23.917969 33.335938 C 23.226562 32.449219 22.53125 31.566406 21.839844 30.679688 Z M 13.65625 30.53125 L 11.644531 32.972656 C 12.265625 33.9375 12.890625 34.90625 13.515625 35.871094 C 14.203125 34.972656 14.886719 34.070312 15.574219 33.167969 Z M 17.796875 30.558594 L 15.75 33.195312 L 17.605469 35.890625 C 18.3125 35.039062 19.019531 34.191406 19.726562 33.339844 C 19.082031 32.414062 18.441406 31.484375 17.796875 30.558594 Z M 17.796875 30.558594 " fill-opacity="0.812" fill-rule="nonzero"/><g clip-path="url(#49d982c634)"><path fill="#eb2165" d="M 22.367188 4.195312 C 22.355469 4.621094 22.34375 5.046875 22.335938 5.46875 L 14.097656 5.652344 L 14.082031 4.996094 L 14.066406 4.34375 C 14.222656 4.339844 14.378906 4.335938 14.535156 4.332031 C 17.144531 4.289062 19.753906 4.242188 22.363281 4.195312 Z M 32.796875 0.148438 C 32.765625 0.148438 32.734375 0.152344 32.703125 0.152344 C 32.152344 0.1875 31.691406 0.539062 31.230469 0.890625 C 30.835938 0.875 30.4375 0.859375 30.039062 0.859375 C 29.542969 0.859375 29.046875 0.886719 28.546875 0.964844 C 27.648438 1.105469 26.742188 1.425781 26.03125 2.03125 C 25.324219 2.632812 24.808594 3.519531 24.296875 4.402344 C 24.292969 4.40625 24.292969 4.410156 24.296875 4.414062 C 24.296875 4.417969 24.300781 4.421875 24.304688 4.421875 L 36.515625 11.011719 C 36.519531 11.015625 36.519531 11.015625 36.523438 11.015625 C 36.527344 11.015625 36.527344 11.015625 36.53125 11.011719 C 36.53125 11.011719 36.535156 11.007812 36.535156 11.007812 L 37.128906 9.96875 L 37.128906 9.953125 L 36.4375 8.910156 C 36.375 7.339844 36.3125 5.765625 35.96875 4.710938 C 35.628906 3.65625 35.011719 3.121094 34.390625 2.585938 L 34.390625 2.589844 C 34.445312 1.957031 34.496094 1.324219 34.199219 0.863281 C 33.921875 0.429688 33.328125 0.148438 32.796875 0.148438 Z M 26.429688 8.550781 L 30.691406 11.210938 C 25.152344 11.320312 16.875 11.480469 5.863281 11.695312 L 9.386719 9.042969 L 17.910156 8.796875 Z M 24.355469 14.082031 C 25.511719 15.507812 26.628906 16.886719 27.710938 18.21875 L 24.421875 22.152344 L 21.378906 18.351562 Z M 17.902344 14.003906 L 21.027344 18.34375 C 19.933594 19.707031 18.84375 21.070312 17.75 22.433594 L 14.738281 18.226562 Z M 11.296875 14.074219 L 14.40625 18.1875 L 11.226562 22.519531 L 8.1875 17.988281 Z M 12.664062 23.527344 L 15.078125 26.925781 C 14.1875 28.066406 13.296875 29.207031 12.40625 30.347656 C 11.625 29.101562 10.839844 27.859375 10.058594 26.613281 Z M 23.230469 23.84375 L 23.875 24.683594 C 24.53125 25.542969 25.1875 26.402344 25.84375 27.261719 C 24.925781 28.296875 24.011719 29.328125 23.09375 30.363281 L 20.726562 27.21875 Z M 18.011719 23.625 C 18.820312 24.820312 19.625 26.011719 20.433594 27.203125 C 19.515625 28.28125 18.601562 29.355469 17.6875 30.433594 L 15.355469 26.960938 Z M 21.84375 30.71875 C 22.519531 31.582031 23.203125 32.457031 23.890625 33.335938 L 23.886719 33.335938 C 23.195312 34.136719 22.496094 34.941406 21.792969 35.753906 L 19.9375 33.347656 L 21.839844 30.71875 Z M 13.652344 30.566406 L 15.550781 33.167969 L 15.546875 33.167969 C 14.871094 34.058594 14.191406 34.945312 13.515625 35.835938 C 12.902344 34.882812 12.285156 33.929688 11.671875 32.972656 Z M 17.796875 30.597656 C 18.433594 31.515625 19.066406 32.429688 19.699219 33.339844 L 19.695312 33.339844 C 18.960938 34.222656 18.265625 35.0625 17.609375 35.855469 L 15.773438 33.195312 Z M 21.328125 2.90625 C 21.3125 2.90625 21.3125 2.90625 21.300781 2.90625 C 20.9375 2.910156 20.515625 2.953125 20.058594 2.996094 C 19.519531 3.050781 18.929688 3.109375 18.332031 3.113281 C 18.320312 3.113281 18.289062 3.113281 18.277344 3.113281 C 17.691406 3.113281 17.097656 3.0625 16.542969 3.015625 L 16.539062 3.015625 C 16.050781 2.972656 15.585938 2.933594 15.1875 2.933594 C 14.8125 2.933594 14.488281 2.96875 14.246094 3.070312 C 13.4375 3.40625 13.527344 4.464844 13.613281 5.507812 L 5.3125 10.382812 C 5.308594 10.386719 5.304688 10.390625 5.300781 10.398438 L 0.15625 36.753906 C 0.15625 36.757812 0.15625 36.765625 0.160156 36.769531 C 0.164062 36.773438 0.171875 36.777344 0.175781 36.777344 C 0.175781 36.777344 0.179688 36.777344 0.179688 36.777344 L 4.019531 36.808594 C 4.023438 36.808594 4.03125 36.804688 4.035156 36.800781 C 4.039062 36.796875 4.039062 36.796875 4.039062 36.792969 C 4.964844 33.746094 5.890625 30.703125 6.691406 27.769531 L 6.691406 27.765625 C 6.796875 27.390625 6.902344 27 7 26.632812 L 7.007812 26.609375 L 7.011719 26.582031 C 7.667969 24.15625 8.222656 22.125 8.640625 22.125 C 8.648438 22.125 8.660156 22.125 8.667969 22.125 C 9.085938 22.214844 9.394531 24.398438 9.695312 26.792969 C 9.722656 27 9.75 27.214844 9.773438 27.421875 L 9.777344 27.433594 L 9.777344 27.453125 C 9.804688 27.652344 9.832031 27.871094 9.855469 28.070312 C 10.207031 30.875 10.578125 33.453125 10.945312 36.03125 L 10.949219 36.054688 C 10.949219 36.066406 10.960938 36.074219 10.972656 36.074219 L 24.804688 36.207031 C 24.8125 36.207031 24.816406 36.203125 24.820312 36.199219 C 24.824219 36.195312 24.828125 36.191406 24.828125 36.183594 C 25.199219 33.03125 25.574219 29.878906 26.046875 27.191406 C 26.519531 24.515625 27.085938 22.335938 27.503906 22.335938 C 27.507812 22.335938 27.511719 22.335938 27.515625 22.335938 C 27.699219 22.359375 27.867188 22.828125 28.054688 23.621094 C 28.15625 24.042969 28.261719 24.550781 28.382812 25.121094 C 28.535156 25.851562 28.707031 26.679688 28.917969 27.558594 C 29.597656 30.40625 30.660156 33.773438 31.722656 37.140625 C 31.726562 37.148438 31.734375 37.15625 31.742188 37.15625 C 31.742188 37.15625 31.746094 37.15625 31.746094 37.15625 L 35.800781 37.085938 C 35.8125 37.085938 35.820312 37.074219 35.820312 37.0625 L 35.820312 37.058594 L 30.984375 10.390625 C 30.984375 10.382812 30.980469 10.371094 30.972656 10.367188 C 29.878906 9.789062 28.785156 9.210938 27.414062 8.414062 C 26.050781 7.621094 24.414062 6.617188 22.773438 5.613281 L 22.753906 5.597656 L 22.75 5.597656 C 22.828125 4.511719 22.90625 3.402344 22.175781 3.050781 C 21.957031 2.945312 21.664062 2.90625 21.328125 2.90625 Z M 21.328125 2.90625 " fill-opacity="1" fill-rule="nonzero"/></g></svg>