<svg xmlns="http://www.w3.org/2000/svg" xmlns:xlink="http://www.w3.org/1999/xlink" width="50" zoomAndPan="magnify" viewBox="0 0 37.5 37.499999" height="50" preserveAspectRatio="xMidYMid meet" version="1.0"><defs><clipPath id="385b1c465c"><path d="M 28 16 L 36.933594 16 L 36.933594 21 L 28 21 Z M 28 16 " clip-rule="nonzero"/></clipPath><clipPath id="4898f29b11"><path d="M 16 28 L 21 28 L 21 37.007812 L 16 37.007812 Z M 16 28 " clip-rule="nonzero"/></clipPath></defs><path fill="#000000" d="M 18.527344 8.445312 C 17.460938 8.445312 16.597656 7.582031 16.597656 6.515625 L 16.597656 1.933594 C 16.597656 0.867188 17.460938 0.00390625 18.527344 0.00390625 C 19.59375 0.00390625 20.460938 0.867188 20.460938 1.933594 L 20.460938 6.515625 C 20.460938 7.578125 19.59375 8.445312 18.527344 8.445312 Z M 18.527344 8.445312 " fill-opacity="1" fill-rule="nonzero"/><path fill="#000000" d="M 23.546875 9.84375 C 22.621094 9.3125 22.308594 8.128906 22.839844 7.207031 L 25.128906 3.242188 C 25.664062 2.320312 26.84375 2.003906 27.769531 2.535156 C 28.691406 3.070312 29.007812 4.25 28.476562 5.175781 L 26.183594 9.140625 C 25.652344 10.0625 24.46875 10.378906 23.546875 9.84375 Z M 23.546875 9.84375 " fill-opacity="0.08" fill-rule="nonzero"/><path fill="#000000" d="M 27.191406 13.566406 C 26.660156 12.644531 26.976562 11.464844 27.898438 10.929688 L 31.867188 8.644531 C 32.789062 8.109375 33.972656 8.429688 34.503906 9.351562 C 35.035156 10.277344 34.71875 11.457031 33.796875 11.988281 L 29.828125 14.277344 C 28.90625 14.808594 27.722656 14.492188 27.191406 13.566406 Z M 27.191406 13.566406 " fill-opacity="0.16" fill-rule="nonzero"/><g clip-path="url(#385b1c465c)"><path fill="#000000" d="M 28.484375 18.617188 C 28.488281 17.550781 29.351562 16.683594 30.417969 16.6875 L 34.996094 16.691406 C 36.0625 16.691406 36.925781 17.554688 36.925781 18.625 C 36.925781 19.691406 36.0625 20.554688 34.992188 20.554688 L 30.414062 20.546875 C 29.347656 20.546875 28.484375 19.683594 28.484375 18.617188 Z M 28.484375 18.617188 " fill-opacity="0.24" fill-rule="nonzero"/></g><path fill="#000000" d="M 27.082031 23.632812 C 27.617188 22.710938 28.796875 22.394531 29.71875 22.929688 L 33.679688 25.222656 C 34.605469 25.757812 34.917969 26.941406 34.382812 27.863281 C 33.851562 28.785156 32.667969 29.101562 31.746094 28.566406 L 27.785156 26.273438 C 26.863281 25.738281 26.546875 24.558594 27.082031 23.632812 Z M 27.082031 23.632812 " fill-opacity="0.32" fill-rule="nonzero"/><path fill="#000000" d="M 23.355469 27.273438 C 24.277344 26.742188 25.457031 27.0625 25.992188 27.988281 L 28.273438 31.953125 C 28.804688 32.878906 28.488281 34.058594 27.5625 34.59375 C 26.636719 35.125 25.457031 34.804688 24.925781 33.878906 L 22.644531 29.914062 C 22.109375 28.988281 22.429688 27.808594 23.355469 27.273438 Z M 23.355469 27.273438 " fill-opacity="0.4" fill-rule="nonzero"/><g clip-path="url(#4898f29b11)"><path fill="#000000" d="M 18.304688 28.5625 C 19.371094 28.566406 20.234375 29.433594 20.234375 30.5 L 20.222656 35.078125 C 20.222656 36.144531 19.355469 37.007812 18.289062 37.003906 C 17.222656 37.003906 16.359375 36.136719 16.363281 35.070312 L 16.371094 30.492188 C 16.371094 29.425781 17.238281 28.5625 18.304688 28.5625 Z M 18.304688 28.5625 " fill-opacity="0.48" fill-rule="nonzero"/></g><path fill="#000000" d="M 13.289062 27.15625 C 14.210938 27.691406 14.527344 28.871094 13.992188 29.792969 L 11.691406 33.753906 C 11.15625 34.675781 9.976562 34.992188 9.054688 34.453125 C 8.128906 33.917969 7.816406 32.738281 8.351562 31.816406 L 10.648438 27.855469 C 11.183594 26.933594 12.367188 26.621094 13.289062 27.15625 Z M 13.289062 27.15625 " fill-opacity="0.56" fill-rule="nonzero"/><path fill="#000000" d="M 9.652344 23.425781 C 10.183594 24.351562 9.863281 25.53125 8.9375 26.0625 L 4.96875 28.339844 C 4.042969 28.871094 2.863281 28.550781 2.332031 27.625 C 1.800781 26.699219 2.117188 25.519531 3.042969 24.988281 L 7.015625 22.710938 C 7.9375 22.179688 9.121094 22.5 9.652344 23.425781 Z M 9.652344 23.425781 " fill-opacity="0.64" fill-rule="nonzero"/><path fill="#000000" d="M 8.367188 18.375 C 8.363281 19.441406 7.496094 20.304688 6.429688 20.300781 L 1.851562 20.289062 C 0.785156 20.285156 -0.078125 19.417969 -0.0742188 18.351562 C -0.0703125 17.285156 0.796875 16.421875 1.863281 16.425781 L 6.441406 16.4375 C 7.507812 16.441406 8.371094 17.308594 8.367188 18.375 Z M 8.367188 18.375 " fill-opacity="0.72" fill-rule="nonzero"/><path fill="#000000" d="M 9.78125 13.359375 C 9.246094 14.28125 8.0625 14.59375 7.140625 14.058594 L 3.183594 11.757812 C 2.261719 11.21875 1.949219 10.039062 2.484375 9.117188 C 3.019531 8.195312 4.203125 7.882812 5.125 8.417969 L 9.082031 10.71875 C 10.003906 11.253906 10.316406 12.4375 9.78125 13.359375 Z M 9.78125 13.359375 " fill-opacity="0.8" fill-rule="nonzero"/><path fill="#000000" d="M 13.515625 9.726562 C 12.589844 10.253906 11.410156 9.933594 10.878906 9.007812 L 8.601562 5.035156 C 8.074219 4.109375 8.394531 2.929688 9.320312 2.398438 C 10.246094 1.871094 11.425781 2.191406 11.957031 3.117188 L 14.230469 7.089844 C 14.761719 8.015625 14.441406 9.195312 13.515625 9.726562 Z M 13.515625 9.726562 " fill-opacity="0.9" fill-rule="nonzero"/></svg>