<svg xmlns="http://www.w3.org/2000/svg" xmlns:xlink="http://www.w3.org/1999/xlink" width="50" zoomAndPan="magnify" viewBox="0 0 37.5 37.499999" height="50" preserveAspectRatio="xMidYMid meet" version="1.0"><defs><clipPath id="cfe618044e"><path d="M 17 25 L 26 25 L 26 32.429688 L 17 32.429688 Z M 17 25 " clip-rule="nonzero"/></clipPath><clipPath id="31bb640b3b"><path d="M 28 4.304688 L 37.007812 4.304688 L 37.007812 12 L 28 12 Z M 28 4.304688 " clip-rule="nonzero"/></clipPath><clipPath id="279d49f78e"><path d="M 14 4.304688 L 23 4.304688 L 23 12 L 14 12 Z M 14 4.304688 " clip-rule="nonzero"/></clipPath><clipPath id="80146b9dde"><path d="M 0 4.304688 L 9 4.304688 L 9 12 L 0 12 Z M 0 4.304688 " clip-rule="nonzero"/></clipPath></defs><path fill="#232323" d="M 27.039062 18.5 L 19.933594 18.5 L 21.339844 11.421875 L 28.46875 11.421875 Z M 27.039062 18.5 " fill-opacity="1" fill-rule="nonzero"/><path fill="#232323" d="M 12.804688 18.5 L 5.699219 18.5 L 7.105469 11.421875 L 14.234375 11.421875 Z M 12.804688 18.5 " fill-opacity="1" fill-rule="nonzero"/><g clip-path="url(#cfe618044e)"><path fill="#232323" d="M 24.175781 32.664062 L 17.074219 32.664062 L 18.503906 25.582031 L 25.609375 25.582031 Z M 24.175781 32.664062 " fill-opacity="1" fill-rule="nonzero"/></g><path fill="#232323" d="M 32.738281 25.582031 L 25.609375 25.582031 L 27.039062 18.5 L 34.144531 18.5 Z M 32.738281 25.582031 " fill-opacity="1" fill-rule="nonzero"/><g clip-path="url(#31bb640b3b)"><path fill="#232323" d="M 35.574219 11.421875 L 28.46875 11.421875 L 29.902344 4.339844 L 37.007812 4.339844 Z M 35.574219 11.421875 " fill-opacity="1" fill-rule="nonzero"/></g><g clip-path="url(#279d49f78e)"><path fill="#232323" d="M 21.339844 11.421875 L 14.234375 11.421875 L 15.667969 4.339844 L 22.769531 4.339844 Z M 21.339844 11.421875 " fill-opacity="1" fill-rule="nonzero"/></g><g clip-path="url(#80146b9dde)"><path fill="#232323" d="M 7.105469 11.421875 L 0 11.421875 L 1.429688 4.339844 L 8.535156 4.339844 Z M 7.105469 11.421875 " fill-opacity="1" fill-rule="nonzero"/></g></svg>