<svg xmlns="http://www.w3.org/2000/svg" xmlns:xlink="http://www.w3.org/1999/xlink" width="50" zoomAndPan="magnify" viewBox="0 0 37.5 37.499999" height="50" preserveAspectRatio="xMidYMid meet" version="1.0"><defs><clipPath id="281437fa0b"><path d="M 0 0 L 37.007812 0 L 37.007812 37.007812 L 0 37.007812 Z M 0 0 " clip-rule="nonzero"/></clipPath><clipPath id="63dc96e46c"><path d="M 2.308594 2.574219 L 34.875 2.574219 L 34.875 34.402344 L 2.308594 34.402344 Z M 2.308594 2.574219 " clip-rule="nonzero"/></clipPath></defs><g clip-path="url(#281437fa0b)"><path fill="#ffffff" d="M 0 0 L 37.007812 0 L 37.007812 37.007812 L 0 37.007812 Z M 0 0 " fill-opacity="1" fill-rule="nonzero"/><path fill="#ff7800" d="M 0 0 L 37.007812 0 L 37.007812 37.007812 L 0 37.007812 Z M 0 0 " fill-opacity="1" fill-rule="nonzero"/></g><g clip-path="url(#63dc96e46c)"><path fill="#ffffff" d="M 34.683594 34.417969 L 26.605469 34.417969 L 26.605469 18.757812 C 26.605469 14.289062 22.972656 10.652344 18.503906 10.652344 C 14.03125 10.652344 10.398438 14.285156 10.398438 18.757812 L 10.398438 34.417969 L 2.324219 34.417969 L 2.324219 18.757812 C 2.324219 9.832031 9.582031 2.574219 18.503906 2.574219 C 27.421875 2.574219 34.683594 9.832031 34.683594 18.757812 Z M 34.683594 34.417969 " fill-opacity="1" fill-rule="nonzero"/></g></svg>